<?xml version="1.0" encoding="utf-8"?>
<svg version="1.1" xmlns:xlink="http://www.w3.org/1999/xlink" width="14px" height="14px" xmlns="http://www.w3.org/2000/svg">
  <g transform="matrix(1 0 0 1 -414 -299 )">
    <path d="M 421 299  C 424.92 299  428 302.08  428 306  C 428 309.92  424.92 313  421 313  C 417.08 313  414 309.92  414 306  C 414 302.08  417.08 299  421 299  Z " fill-rule="nonzero" fill="#ffffff" stroke="none" fill-opacity="0" />
    <path d="M 421 299.5  C 424.64 299.5  427.5 302.36  427.5 306  C 427.5 309.64  424.64 312.5  421 312.5  C 417.36 312.5  414.5 309.64  414.5 306  C 414.5 302.36  417.36 299.5  421 299.5  Z " stroke-width="1" stroke="#1890ff" fill="none" />
  </g>
</svg>