<?xml version="1.0" encoding="utf-8"?>
<svg version="1.1" xmlns:xlink="http://www.w3.org/1999/xlink" width="14px" height="14px" xmlns="http://www.w3.org/2000/svg">
  <g transform="matrix(1 0 0 1 -473 -299 )">
    <path d="M 480 299  C 483.92 299  487 302.08  487 306  C 487 309.92  483.92 313  480 313  C 476.08 313  473 309.92  473 306  C 473 302.08  476.08 299  480 299  Z " fill-rule="nonzero" fill="#ffffff" stroke="none" fill-opacity="0" />
    <path d="M 480 299.5  C 483.64 299.5  486.5 302.36  486.5 306  C 486.5 309.64  483.64 312.5  480 312.5  C 476.36 312.5  473.5 309.64  473.5 306  C 473.5 302.36  476.36 299.5  480 299.5  Z " stroke-width="1" stroke="#d9d9d9" fill="none" />
  </g>
</svg>