<?xml version="1.0" encoding="utf-8"?>
<svg version="1.1" xmlns:xlink="http://www.w3.org/1999/xlink" width="127px" height="40px" xmlns="http://www.w3.org/2000/svg">
  <g transform="matrix(1 0 0 1 -777 -423 )">
    <path d="M 777 423  L 904 423  L 904 463  L 777 463  L 777 423  " fill-rule="nonzero" fill="#cccccc" stroke="none" />
    <path d="M 780 426  L 901 426  L 901 460  L 780 460  L 780 426  " fill-rule="nonzero" fill="#ffffff" stroke="none" />
    <path d="M 846.04 435  C 844.36 435  843.04 433.68  843.04 432  C 843.04 430.32  844.36 429  846.04 429  C 847.72 429  849.04 430.32  849.04 432  C 849.04 433.68  847.72 435  846.04 435  " fill-rule="nonzero" fill="#cccccc" stroke="none" />
    <path d="M 781 459  L 781 441.4  L 810.75 433.4  L 852.4 452.952755905512  L 876.2 438.2  L 900 452.952755905512  L 900 459  L 781 459  " fill-rule="nonzero" fill="#169bd5" stroke="none" />
  </g>
</svg>