<?xml version="1.0" encoding="utf-8"?>
<svg version="1.1" xmlns:xlink="http://www.w3.org/1999/xlink" width="14px" height="14px" xmlns="http://www.w3.org/2000/svg">
  <g transform="matrix(1 0 0 1 -1405 -515 )">
    <path d="M 1412 518  C 1414.24 518  1416 519.76  1416 522  C 1416 524.24  1414.24 526  1412 526  C 1409.76 526  1408 524.24  1408 522  C 1408 519.76  1409.76 518  1412 518  Z " fill-rule="nonzero" fill="#ffffff" stroke="none" />
    <path d="M 1412 517  C 1414.8 517  1417 519.2  1417 522  C 1417 524.8  1414.8 527  1412 527  C 1409.2 527  1407 524.8  1407 522  C 1407 519.2  1409.2 517  1412 517  Z " stroke-width="4" stroke="#1890ff" fill="none" />
  </g>
</svg>