<?xml version="1.0" encoding="utf-8"?>
<svg version="1.1" xmlns:xlink="http://www.w3.org/1999/xlink" width="14px" height="14px" xmlns="http://www.w3.org/2000/svg">
  <g transform="matrix(1 0 0 1 -1405 -405 )">
    <path d="M 1412 408  C 1414.24 408  1416 409.76  1416 412  C 1416 414.24  1414.24 416  1412 416  C 1409.76 416  1408 414.24  1408 412  C 1408 409.76  1409.76 408  1412 408  Z " fill-rule="nonzero" fill="#ffffff" stroke="none" />
    <path d="M 1412 407  C 1414.8 407  1417 409.2  1417 412  C 1417 414.8  1414.8 417  1412 417  C 1409.2 417  1407 414.8  1407 412  C 1407 409.2  1409.2 407  1412 407  Z " stroke-width="4" stroke="#1890ff" fill="none" />
  </g>
</svg>