<?xml version="1.0" encoding="utf-8"?>
<svg version="1.1" xmlns:xlink="http://www.w3.org/1999/xlink" width="119px" height="32px" xmlns="http://www.w3.org/2000/svg">
  <g transform="matrix(1 0 0 1 -1072 -462 )">
    <path d="M 1073 466  A 3 3 0 0 1 1076 463 L 1187 463  A 3 3 0 0 1 1190 466 L 1190 490  A 3 3 0 0 1 1187 493 L 1076 493  A 3 3 0 0 1 1073 490 L 1073 466  Z " fill-rule="nonzero" fill="#ffffff" stroke="none" />
    <path d="M 1072.5 466  A 3.5 3.5 0 0 1 1076 462.5 L 1187 462.5  A 3.5 3.5 0 0 1 1190.5 466 L 1190.5 490  A 3.5 3.5 0 0 1 1187 493.5 L 1076 493.5  A 3.5 3.5 0 0 1 1072.5 490 L 1072.5 466  Z " stroke-width="1" stroke-dasharray="9,4" stroke="#d9d9d9" fill="none" stroke-dashoffset="0.5" />
  </g>
</svg>