<?xml version="1.0" encoding="utf-8"?>
<svg version="1.1" xmlns:xlink="http://www.w3.org/1999/xlink" width="119px" height="32px" xmlns="http://www.w3.org/2000/svg">
  <g transform="matrix(1 0 0 1 -565 -462 )">
    <path d="M 566 466  A 3 3 0 0 1 569 463 L 680 463  A 3 3 0 0 1 683 466 L 683 490  A 3 3 0 0 1 680 493 L 569 493  A 3 3 0 0 1 566 490 L 566 466  Z " fill-rule="nonzero" fill="#ffffff" stroke="none" />
    <path d="M 565.5 466  A 3.5 3.5 0 0 1 569 462.5 L 680 462.5  A 3.5 3.5 0 0 1 683.5 466 L 683.5 490  A 3.5 3.5 0 0 1 680 493.5 L 569 493.5  A 3.5 3.5 0 0 1 565.5 490 L 565.5 466  Z " stroke-width="1" stroke-dasharray="9,4" stroke="#d9d9d9" fill="none" stroke-dashoffset="0.5" />
  </g>
</svg>