<?xml version="1.0" encoding="utf-8"?>
<svg version="1.1" xmlns:xlink="http://www.w3.org/1999/xlink" width="119px" height="32px" xmlns="http://www.w3.org/2000/svg">
  <g transform="matrix(1 0 0 1 -556 -446 )">
    <path d="M 557 450  A 3 3 0 0 1 560 447 L 671 447  A 3 3 0 0 1 674 450 L 674 474  A 3 3 0 0 1 671 477 L 560 477  A 3 3 0 0 1 557 474 L 557 450  Z " fill-rule="nonzero" fill="#ffffff" stroke="none" />
    <path d="M 556.5 450  A 3.5 3.5 0 0 1 560 446.5 L 671 446.5  A 3.5 3.5 0 0 1 674.5 450 L 674.5 474  A 3.5 3.5 0 0 1 671 477.5 L 560 477.5  A 3.5 3.5 0 0 1 556.5 474 L 556.5 450  Z " stroke-width="1" stroke-dasharray="9,4" stroke="#d9d9d9" fill="none" stroke-dashoffset="0.5" />
  </g>
</svg>