<?xml version="1.0" encoding="utf-8"?>
<svg version="1.1" xmlns:xlink="http://www.w3.org/1999/xlink" width="14px" height="14px" xmlns="http://www.w3.org/2000/svg">
  <g transform="matrix(1 0 0 1 -308 -487 )">
    <path d="M 315 487  C 318.92 487  322 490.08  322 494  C 322 497.92  318.92 501  315 501  C 311.08 501  308 497.92  308 494  C 308 490.08  311.08 487  315 487  Z " fill-rule="nonzero" fill="#ffffff" stroke="none" fill-opacity="0" />
    <path d="M 315 487.5  C 318.64 487.5  321.5 490.36  321.5 494  C 321.5 497.64  318.64 500.5  315 500.5  C 311.36 500.5  308.5 497.64  308.5 494  C 308.5 490.36  311.36 487.5  315 487.5  Z " stroke-width="1" stroke="#d9d9d9" fill="none" />
  </g>
</svg>