<?xml version="1.0" encoding="utf-8"?>
<svg version="1.1" xmlns:xlink="http://www.w3.org/1999/xlink" width="14px" height="14px" xmlns="http://www.w3.org/2000/svg">
  <g transform="matrix(1 0 0 1 -397 -528 )">
    <path d="M 404 528  C 407.92 528  411 531.08  411 535  C 411 538.92  407.92 542  404 542  C 400.08 542  397 538.92  397 535  C 397 531.08  400.08 528  404 528  Z " fill-rule="nonzero" fill="#ffffff" stroke="none" fill-opacity="0" />
    <path d="M 404 528.5  C 407.64 528.5  410.5 531.36  410.5 535  C 410.5 538.64  407.64 541.5  404 541.5  C 400.36 541.5  397.5 538.64  397.5 535  C 397.5 531.36  400.36 528.5  404 528.5  Z " stroke-width="1" stroke="#1890ff" fill="none" />
  </g>
</svg>