<?xml version="1.0" encoding="utf-8"?>
<svg version="1.1" xmlns:xlink="http://www.w3.org/1999/xlink" width="119px" height="32px" xmlns="http://www.w3.org/2000/svg">
  <g transform="matrix(1 0 0 1 -246 -233 )">
    <path d="M 247 237  A 3 3 0 0 1 250 234 L 361 234  A 3 3 0 0 1 364 237 L 364 261  A 3 3 0 0 1 361 264 L 250 264  A 3 3 0 0 1 247 261 L 247 237  Z " fill-rule="nonzero" fill="#ffffff" stroke="none" />
    <path d="M 246.5 237  A 3.5 3.5 0 0 1 250 233.5 L 361 233.5  A 3.5 3.5 0 0 1 364.5 237 L 364.5 261  A 3.5 3.5 0 0 1 361 264.5 L 250 264.5  A 3.5 3.5 0 0 1 246.5 261 L 246.5 237  Z " stroke-width="1" stroke-dasharray="9,4" stroke="#d9d9d9" fill="none" stroke-dashoffset="0.5" />
  </g>
</svg>