<?xml version="1.0" encoding="utf-8"?>
<svg version="1.1" xmlns:xlink="http://www.w3.org/1999/xlink" width="480px" height="32px" xmlns="http://www.w3.org/2000/svg">
  <g transform="matrix(1 0 0 1 -215 -673 )">
    <path d="M 216 677  A 3 3 0 0 1 219 674 L 691 674  A 3 3 0 0 1 694 677 L 694 701  A 3 3 0 0 1 691 704 L 219 704  A 3 3 0 0 1 216 701 L 216 677  Z " fill-rule="nonzero" fill="#ffffff" stroke="none" />
    <path d="M 215.5 677  A 3.5 3.5 0 0 1 219 673.5 L 691 673.5  A 3.5 3.5 0 0 1 694.5 677 L 694.5 701  A 3.5 3.5 0 0 1 691 704.5 L 219 704.5  A 3.5 3.5 0 0 1 215.5 701 L 215.5 677  Z " stroke-width="1" stroke-dasharray="9,4" stroke="#d9d9d9" fill="none" stroke-dashoffset="0.5" />
  </g>
</svg>