<?xml version="1.0" encoding="utf-8"?>
<svg version="1.1" xmlns:xlink="http://www.w3.org/1999/xlink" width="480px" height="32px" xmlns="http://www.w3.org/2000/svg">
  <g transform="matrix(1 0 0 1 -420 -526 )">
    <path d="M 421 530  A 3 3 0 0 1 424 527 L 896 527  A 3 3 0 0 1 899 530 L 899 554  A 3 3 0 0 1 896 557 L 424 557  A 3 3 0 0 1 421 554 L 421 530  Z " fill-rule="nonzero" fill="#ffffff" stroke="none" />
    <path d="M 420.5 530  A 3.5 3.5 0 0 1 424 526.5 L 896 526.5  A 3.5 3.5 0 0 1 899.5 530 L 899.5 554  A 3.5 3.5 0 0 1 896 557.5 L 424 557.5  A 3.5 3.5 0 0 1 420.5 554 L 420.5 530  Z " stroke-width="1" stroke-dasharray="9,4" stroke="#d9d9d9" fill="none" stroke-dashoffset="0.5" />
  </g>
</svg>