<?xml version="1.0" encoding="utf-8"?>
<svg version="1.1" xmlns:xlink="http://www.w3.org/1999/xlink" width="14px" height="14px" xmlns="http://www.w3.org/2000/svg">
  <g transform="matrix(1 0 0 1 -420 -250 )">
    <path d="M 427 250  C 430.92 250  434 253.08  434 257  C 434 260.92  430.92 264  427 264  C 423.08 264  420 260.92  420 257  C 420 253.08  423.08 250  427 250  Z " fill-rule="nonzero" fill="#ffffff" stroke="none" fill-opacity="0" />
    <path d="M 427 250.5  C 430.64 250.5  433.5 253.36  433.5 257  C 433.5 260.64  430.64 263.5  427 263.5  C 423.36 263.5  420.5 260.64  420.5 257  C 420.5 253.36  423.36 250.5  427 250.5  Z " stroke-width="1" stroke="#d9d9d9" fill="none" />
  </g>
</svg>