<?xml version="1.0" encoding="utf-8"?>
<svg version="1.1" xmlns:xlink="http://www.w3.org/1999/xlink" width="14px" height="14px" xmlns="http://www.w3.org/2000/svg">
  <g transform="matrix(1 0 0 1 -443 -409 )">
    <path d="M 450 409  C 453.92 409  457 412.08  457 416  C 457 419.92  453.92 423  450 423  C 446.08 423  443 419.92  443 416  C 443 412.08  446.08 409  450 409  Z " fill-rule="nonzero" fill="#ffffff" stroke="none" fill-opacity="0" />
    <path d="M 450 409.5  C 453.64 409.5  456.5 412.36  456.5 416  C 456.5 419.64  453.64 422.5  450 422.5  C 446.36 422.5  443.5 419.64  443.5 416  C 443.5 412.36  446.36 409.5  450 409.5  Z " stroke-width="1" stroke="#d9d9d9" fill="none" />
  </g>
</svg>