<?xml version="1.0" encoding="utf-8"?>
<svg version="1.1" xmlns:xlink="http://www.w3.org/1999/xlink" width="232px" height="10px" preserveAspectRatio="xMinYMid meet" viewBox="283 502  232 8" xmlns="http://www.w3.org/2000/svg">
  <defs>
    <mask fill="white" id="clip516">
      <path d="M 450 747  L 570 747  L 570 811  L 450 811  Z M 283 503  L 640 503  L 640 1166  L 283 1166  Z " fill-rule="evenodd" />
    </mask>
  </defs>
  <path d="M 283 506.5  L 505 506.5  A 5 5 0 0 1 510.5 511 L 510.5 636  A 3 3 0 0 1 513.5 639 A 3 3 0 0 1 510.5 642 L 510.5 1152  A 5 5 0 0 0 515.5 1157.5 L 630 1157.5  " stroke-width="1" stroke-dasharray="3,1" stroke="#0000ff" fill="none" mask="url(#clip516)" />
  <path d="M 624.946446609407 1152.85355339059  L 629.592893218813 1157.5  L 624.946446609407 1162.14644660941  L 625.653553390593 1162.85355339059  L 630.653553390593 1157.85355339059  L 631.007106781187 1157.5  L 630.653553390593 1157.14644660941  L 625.653553390593 1152.14644660941  L 624.946446609407 1152.85355339059  Z " fill-rule="nonzero" fill="#0000ff" stroke="none" mask="url(#clip516)" />
</svg>