<?xml version="1.0" encoding="utf-8"?>
<svg version="1.1" xmlns:xlink="http://www.w3.org/1999/xlink" width="14px" height="14px" xmlns="http://www.w3.org/2000/svg">
  <g transform="matrix(1 0 0 1 -443 -469 )">
    <path d="M 450 469  C 453.92 469  457 472.08  457 476  C 457 479.92  453.92 483  450 483  C 446.08 483  443 479.92  443 476  C 443 472.08  446.08 469  450 469  Z " fill-rule="nonzero" fill="#ffffff" stroke="none" fill-opacity="0" />
    <path d="M 450 469.5  C 453.64 469.5  456.5 472.36  456.5 476  C 456.5 479.64  453.64 482.5  450 482.5  C 446.36 482.5  443.5 479.64  443.5 476  C 443.5 472.36  446.36 469.5  450 469.5  Z " stroke-width="1" stroke="#d9d9d9" fill="none" />
  </g>
</svg>