<?xml version="1.0" encoding="utf-8"?>
<svg version="1.1" xmlns:xlink="http://www.w3.org/1999/xlink" width="18px" height="18px" preserveAspectRatio="xMinYMid meet" viewBox="621 1149  18 16" xmlns="http://www.w3.org/2000/svg">
  <defs>
    <mask fill="white" id="clip823">
      <path d="M 450 820  L 570 820  L 570 884  L 450 884  Z M 370 563  L 640 563  L 640 1166  L 370 1166  Z " fill-rule="evenodd" />
    </mask>
  </defs>
  <path d="M 370 566.5  L 505 566.5  A 5 5 0 0 1 510.5 571 L 510.5 696  A 3 3 0 0 1 513.5 699 A 3 3 0 0 1 510.5 702 L 510.5 1152  A 5 5 0 0 0 515.5 1157.5 L 630 1157.5  " stroke-width="1" stroke-dasharray="3,1" stroke="#0000ff" fill="none" mask="url(#clip823)" />
  <path d="M 624.946446609407 1152.85355339059  L 629.592893218813 1157.5  L 624.946446609407 1162.14644660941  L 625.653553390593 1162.85355339059  L 630.653553390593 1157.85355339059  L 631.007106781187 1157.5  L 630.653553390593 1157.14644660941  L 625.653553390593 1152.14644660941  L 624.946446609407 1152.85355339059  Z " fill-rule="nonzero" fill="#0000ff" stroke="none" mask="url(#clip823)" />
</svg>