<?xml version="1.0" encoding="utf-8"?>
<svg version="1.1" xmlns:xlink="http://www.w3.org/1999/xlink" width="480px" height="32px" xmlns="http://www.w3.org/2000/svg">
  <g transform="matrix(1 0 0 1 -420 -460 )">
    <path d="M 421 464  A 3 3 0 0 1 424 461 L 896 461  A 3 3 0 0 1 899 464 L 899 488  A 3 3 0 0 1 896 491 L 424 491  A 3 3 0 0 1 421 488 L 421 464  Z " fill-rule="nonzero" fill="#ffffff" stroke="none" />
    <path d="M 420.5 464  A 3.5 3.5 0 0 1 424 460.5 L 896 460.5  A 3.5 3.5 0 0 1 899.5 464 L 899.5 488  A 3.5 3.5 0 0 1 896 491.5 L 424 491.5  A 3.5 3.5 0 0 1 420.5 488 L 420.5 464  Z " stroke-width="1" stroke-dasharray="9,4" stroke="#d9d9d9" fill="none" stroke-dashoffset="0.5" />
  </g>
</svg>