<?xml version="1.0" encoding="utf-8"?>
<svg version="1.1" xmlns:xlink="http://www.w3.org/1999/xlink" width="14px" height="14px" xmlns="http://www.w3.org/2000/svg">
  <g transform="matrix(1 0 0 1 -1403 -443 )">
    <path d="M 1410 446  C 1412.24 446  1414 447.76  1414 450  C 1414 452.24  1412.24 454  1410 454  C 1407.76 454  1406 452.24  1406 450  C 1406 447.76  1407.76 446  1410 446  Z " fill-rule="nonzero" fill="#ffffff" stroke="none" />
    <path d="M 1410 445  C 1412.8 445  1415 447.2  1415 450  C 1415 452.8  1412.8 455  1410 455  C 1407.2 455  1405 452.8  1405 450  C 1405 447.2  1407.2 445  1410 445  Z " stroke-width="4" stroke="#1890ff" fill="none" />
  </g>
</svg>