<?xml version="1.0" encoding="utf-8"?>
<svg version="1.1" xmlns:xlink="http://www.w3.org/1999/xlink" width="14px" height="14px" xmlns="http://www.w3.org/2000/svg">
  <g transform="matrix(1 0 0 1 -399 -456 )">
    <path d="M 406 456  C 409.92 456  413 459.08  413 463  C 413 466.92  409.92 470  406 470  C 402.08 470  399 466.92  399 463  C 399 459.08  402.08 456  406 456  Z " fill-rule="nonzero" fill="#ffffff" stroke="none" fill-opacity="0" />
    <path d="M 406 456.5  C 409.64 456.5  412.5 459.36  412.5 463  C 412.5 466.64  409.64 469.5  406 469.5  C 402.36 469.5  399.5 466.64  399.5 463  C 399.5 459.36  402.36 456.5  406 456.5  Z " stroke-width="1" stroke="#d9d9d9" fill="none" />
  </g>
</svg>