<?xml version="1.0" encoding="utf-8"?>
<svg version="1.1" xmlns:xlink="http://www.w3.org/1999/xlink" width="14px" height="14px" xmlns="http://www.w3.org/2000/svg">
  <g transform="matrix(1 0 0 1 -616 -549 )">
    <path d="M 623 549  C 626.92 549  630 552.08  630 556  C 630 559.92  626.92 563  623 563  C 619.08 563  616 559.92  616 556  C 616 552.08  619.08 549  623 549  Z " fill-rule="nonzero" fill="#ffffff" stroke="none" fill-opacity="0" />
    <path d="M 623 549.5  C 626.64 549.5  629.5 552.36  629.5 556  C 629.5 559.64  626.64 562.5  623 562.5  C 619.36 562.5  616.5 559.64  616.5 556  C 616.5 552.36  619.36 549.5  623 549.5  Z " stroke-width="1" stroke="#d9d9d9" fill="none" />
  </g>
</svg>