<?xml version="1.0" encoding="utf-8"?>
<svg version="1.1" xmlns:xlink="http://www.w3.org/1999/xlink" width="14px" height="14px" xmlns="http://www.w3.org/2000/svg">
  <g transform="matrix(1 0 0 1 -920 -549 )">
    <path d="M 927 549  C 930.92 549  934 552.08  934 556  C 934 559.92  930.92 563  927 563  C 923.08 563  920 559.92  920 556  C 920 552.08  923.08 549  927 549  Z " fill-rule="nonzero" fill="#ffffff" stroke="none" fill-opacity="0" />
    <path d="M 927 549.5  C 930.64 549.5  933.5 552.36  933.5 556  C 933.5 559.64  930.64 562.5  927 562.5  C 923.36 562.5  920.5 559.64  920.5 556  C 920.5 552.36  923.36 549.5  927 549.5  Z " stroke-width="1" stroke="#1890ff" fill="none" />
  </g>
</svg>