<?xml version="1.0" encoding="utf-8"?>
<svg version="1.1" xmlns:xlink="http://www.w3.org/1999/xlink" width="119px" height="32px" xmlns="http://www.w3.org/2000/svg">
  <g transform="matrix(1 0 0 1 -545 -352 )">
    <path d="M 546 356  A 3 3 0 0 1 549 353 L 660 353  A 3 3 0 0 1 663 356 L 663 380  A 3 3 0 0 1 660 383 L 549 383  A 3 3 0 0 1 546 380 L 546 356  Z " fill-rule="nonzero" fill="#ffffff" stroke="none" />
    <path d="M 545.5 356  A 3.5 3.5 0 0 1 549 352.5 L 660 352.5  A 3.5 3.5 0 0 1 663.5 356 L 663.5 380  A 3.5 3.5 0 0 1 660 383.5 L 549 383.5  A 3.5 3.5 0 0 1 545.5 380 L 545.5 356  Z " stroke-width="1" stroke-dasharray="9,4" stroke="#d9d9d9" fill="none" stroke-dashoffset="0.5" />
  </g>
</svg>