<?xml version="1.0" encoding="utf-8"?>
<svg version="1.1" xmlns:xlink="http://www.w3.org/1999/xlink" width="119px" height="32px" xmlns="http://www.w3.org/2000/svg">
  <g transform="matrix(1 0 0 1 -1424 -312 )">
    <path d="M 1425 316  A 3 3 0 0 1 1428 313 L 1539 313  A 3 3 0 0 1 1542 316 L 1542 340  A 3 3 0 0 1 1539 343 L 1428 343  A 3 3 0 0 1 1425 340 L 1425 316  Z " fill-rule="nonzero" fill="#ffffff" stroke="none" />
    <path d="M 1424.5 316  A 3.5 3.5 0 0 1 1428 312.5 L 1539 312.5  A 3.5 3.5 0 0 1 1542.5 316 L 1542.5 340  A 3.5 3.5 0 0 1 1539 343.5 L 1428 343.5  A 3.5 3.5 0 0 1 1424.5 340 L 1424.5 316  Z " stroke-width="1" stroke-dasharray="9,4" stroke="#d9d9d9" fill="none" stroke-dashoffset="0.5" />
  </g>
</svg>