<?xml version="1.0" encoding="utf-8"?>
<svg version="1.1" xmlns:xlink="http://www.w3.org/1999/xlink" width="14px" height="14px" xmlns="http://www.w3.org/2000/svg">
  <g transform="matrix(1 0 0 1 -1381 -512 )">
    <path d="M 1388 515  C 1390.24 515  1392 516.76  1392 519  C 1392 521.24  1390.24 523  1388 523  C 1385.76 523  1384 521.24  1384 519  C 1384 516.76  1385.76 515  1388 515  Z " fill-rule="nonzero" fill="#ffffff" stroke="none" />
    <path d="M 1388 514  C 1390.8 514  1393 516.2  1393 519  C 1393 521.8  1390.8 524  1388 524  C 1385.2 524  1383 521.8  1383 519  C 1383 516.2  1385.2 514  1388 514  Z " stroke-width="4" stroke="#1890ff" fill="none" />
  </g>
</svg>