<?xml version="1.0" encoding="utf-8"?>
<svg version="1.1" xmlns:xlink="http://www.w3.org/1999/xlink" width="18px" height="18px" preserveAspectRatio="xMinYMid meet" viewBox="1160 426  18 16" xmlns="http://www.w3.org/2000/svg">
  <defs>
    <mask fill="white" id="clip482">
      <path d="M 775 800  L 887 800  L 887 846  L 775 846  Z M 467 425  L 1179 425  L 1179 846  L 467 846  Z " fill-rule="evenodd" />
    </mask>
  </defs>
  <path d="M 467 459.5  L 472 459.5  A 5 5 0 0 1 477.5 464.5 L 477.5 818  A 5 5 0 0 0 482.5 823.5 L 1128 823.5  A 5 5 0 0 0 1133.5 818.5 L 1133.5 439  A 5 5 0 0 1 1138.5 434.5 L 1169 434.5  " stroke-width="1" stroke-dasharray="3,1" stroke="#0000ff" fill="none" mask="url(#clip482)" />
  <path d="M 1163.94644660941 429.853553390593  L 1168.59289321881 434.5  L 1163.94644660941 439.146446609407  L 1164.65355339059 439.853553390593  L 1169.65355339059 434.853553390593  L 1170.00710678119 434.5  L 1169.65355339059 434.146446609407  L 1164.65355339059 429.146446609407  L 1163.94644660941 429.853553390593  Z " fill-rule="nonzero" fill="#0000ff" stroke="none" mask="url(#clip482)" />
</svg>