<?xml version="1.0" encoding="utf-8"?>
<svg version="1.1" xmlns:xlink="http://www.w3.org/1999/xlink" width="15px" height="10px" preserveAspectRatio="xMinYMid meet" viewBox="467 455  15 8" xmlns="http://www.w3.org/2000/svg">
  <defs>
    <mask fill="white" id="clip499">
      <path d="M 703 800  L 815 800  L 815 846  L 703 846  Z M 467 456  L 1367 456  L 1367 846  L 467 846  Z " fill-rule="evenodd" />
    </mask>
  </defs>
  <path d="M 467 459.5  L 472 459.5  A 5 5 0 0 1 477.5 464.5 L 477.5 818  A 5 5 0 0 0 482.5 823.5 L 1353 823.5  A 5 5 0 0 0 1358.5 818.5 L 1358.5 768  " stroke-width="1" stroke-dasharray="3,1" stroke="#0000ff" fill="none" mask="url(#clip499)" />
  <path d="M 1353.85355339059 773.053553390593  L 1358.5 768.407106781187  L 1363.14644660941 773.053553390593  L 1363.85355339059 772.346446609407  L 1358.85355339059 767.346446609407  L 1358.5 766.992893218813  L 1358.14644660941 767.346446609407  L 1353.14644660941 772.346446609407  L 1353.85355339059 773.053553390593  Z " fill-rule="nonzero" fill="#0000ff" stroke="none" mask="url(#clip499)" />
</svg>