<?xml version="1.0" encoding="utf-8"?>
<svg version="1.1" xmlns:xlink="http://www.w3.org/1999/xlink" width="14px" height="14px" xmlns="http://www.w3.org/2000/svg">
  <g transform="matrix(1 0 0 1 -582 -537 )">
    <path d="M 589 537  C 592.92 537  596 540.08  596 544  C 596 547.92  592.92 551  589 551  C 585.08 551  582 547.92  582 544  C 582 540.08  585.08 537  589 537  Z " fill-rule="nonzero" fill="#ffffff" stroke="none" fill-opacity="0" />
    <path d="M 589 537.5  C 592.64 537.5  595.5 540.36  595.5 544  C 595.5 547.64  592.64 550.5  589 550.5  C 585.36 550.5  582.5 547.64  582.5 544  C 582.5 540.36  585.36 537.5  589 537.5  Z " stroke-width="1" stroke="#1890ff" fill="none" />
  </g>
</svg>