<?xml version="1.0" encoding="utf-8"?>
<svg version="1.1" xmlns:xlink="http://www.w3.org/1999/xlink" width="480px" height="32px" xmlns="http://www.w3.org/2000/svg">
  <g transform="matrix(1 0 0 1 -215 -355 )">
    <path d="M 216 359  A 3 3 0 0 1 219 356 L 691 356  A 3 3 0 0 1 694 359 L 694 383  A 3 3 0 0 1 691 386 L 219 386  A 3 3 0 0 1 216 383 L 216 359  Z " fill-rule="nonzero" fill="#ffffff" stroke="none" />
    <path d="M 215.5 359  A 3.5 3.5 0 0 1 219 355.5 L 691 355.5  A 3.5 3.5 0 0 1 694.5 359 L 694.5 383  A 3.5 3.5 0 0 1 691 386.5 L 219 386.5  A 3.5 3.5 0 0 1 215.5 383 L 215.5 359  Z " stroke-width="1" stroke-dasharray="9,4" stroke="#d9d9d9" fill="none" stroke-dashoffset="0.5" />
  </g>
</svg>