<?xml version="1.0" encoding="utf-8"?>
<svg version="1.1" xmlns:xlink="http://www.w3.org/1999/xlink" width="14px" height="14px" xmlns="http://www.w3.org/2000/svg">
  <g transform="matrix(1 0 0 1 -308 -537 )">
    <path d="M 315 537  C 318.92 537  322 540.08  322 544  C 322 547.92  318.92 551  315 551  C 311.08 551  308 547.92  308 544  C 308 540.08  311.08 537  315 537  Z " fill-rule="nonzero" fill="#ffffff" stroke="none" fill-opacity="0" />
    <path d="M 315 537.5  C 318.64 537.5  321.5 540.36  321.5 544  C 321.5 547.64  318.64 550.5  315 550.5  C 311.36 550.5  308.5 547.64  308.5 544  C 308.5 540.36  311.36 537.5  315 537.5  Z " stroke-width="1" stroke="#d9d9d9" fill="none" />
  </g>
</svg>