<?xml version="1.0" encoding="utf-8"?>
<svg version="1.1" xmlns:xlink="http://www.w3.org/1999/xlink" width="14px" height="14px" xmlns="http://www.w3.org/2000/svg">
  <g transform="matrix(1 0 0 1 -582 -507 )">
    <path d="M 589 507  C 592.92 507  596 510.08  596 514  C 596 517.92  592.92 521  589 521  C 585.08 521  582 517.92  582 514  C 582 510.08  585.08 507  589 507  Z " fill-rule="nonzero" fill="#ffffff" stroke="none" fill-opacity="0" />
    <path d="M 589 507.5  C 592.64 507.5  595.5 510.36  595.5 514  C 595.5 517.64  592.64 520.5  589 520.5  C 585.36 520.5  582.5 517.64  582.5 514  C 582.5 510.36  585.36 507.5  589 507.5  Z " stroke-width="1" stroke="#1890ff" fill="none" />
  </g>
</svg>