<?xml version="1.0" encoding="utf-8"?>
<svg version="1.1" xmlns:xlink="http://www.w3.org/1999/xlink" width="14px" height="14px" xmlns="http://www.w3.org/2000/svg">
  <g transform="matrix(1 0 0 1 -308 -507 )">
    <path d="M 315 507  C 318.92 507  322 510.08  322 514  C 322 517.92  318.92 521  315 521  C 311.08 521  308 517.92  308 514  C 308 510.08  311.08 507  315 507  Z " fill-rule="nonzero" fill="#ffffff" stroke="none" fill-opacity="0" />
    <path d="M 315 507.5  C 318.64 507.5  321.5 510.36  321.5 514  C 321.5 517.64  318.64 520.5  315 520.5  C 311.36 520.5  308.5 517.64  308.5 514  C 308.5 510.36  311.36 507.5  315 507.5  Z " stroke-width="1" stroke="#d9d9d9" fill="none" />
  </g>
</svg>