<?xml version="1.0" encoding="utf-8"?>
<svg version="1.1" xmlns:xlink="http://www.w3.org/1999/xlink" width="51px" height="81px" xmlns="http://www.w3.org/2000/svg">
  <g transform="matrix(1 0 0 1 -54 -666 )">
    <path d="M 79 666.5  C 84.32 666.5  88.5 670.68  88.5 676  C 88.5 681.32  84.32 685.5  79 685.5  C 73.68 685.5  69.5 681.32  69.5 676  C 69.5 670.68  73.68 666.5  79 666.5  Z " fill-rule="nonzero" fill="#ffffff" stroke="none" />
    <path d="M 79 666.5  C 84.32 666.5  88.5 670.68  88.5 676  C 88.5 681.32  84.32 685.5  79 685.5  C 73.68 685.5  69.5 681.32  69.5 676  C 69.5 670.68  73.68 666.5  79 666.5  Z " stroke-width="1" stroke="#797979" fill="none" />
    <path d="M 54 696  L 104 696  M 79 686  L 79 721  M 59 746  L 79 721  M 79 721  L 99 746  " stroke-width="1" stroke="#797979" fill="none" />
  </g>
</svg>