<?xml version="1.0" encoding="utf-8"?>
<svg version="1.1" xmlns:xlink="http://www.w3.org/1999/xlink" width="146px" height="50px" xmlns="http://www.w3.org/2000/svg">
  <defs>
    <mask fill="white" id="clip78">
      <path d="M 126.123762376238 0.211864406779666  L 17.7079207920792 0.211864406779666  C 17.7079207920792 0.211864406779666  1.11838159618911 11.1107892943971  1.08415841584159 25  C 1.04968174696576 38.9920870468834  17.7079207920792 50  17.7079207920792 50  L 126.123762376238 50  C 126.123762376238 50  144.591545596446 38.9905619116623  144.554455445545 25  C 144.517629966224 11.1092733287065  126.123762376238 0.211864406779666  126.123762376238 0.211864406779666  Z " fill-rule="evenodd" />
    </mask>
  </defs>
  <g transform="matrix(1 0 0 1 -640 -920 )">
    <path d="M 126.123762376238 0.211864406779666  L 17.7079207920792 0.211864406779666  C 17.7079207920792 0.211864406779666  1.11838159618911 11.1107892943971  1.08415841584159 25  C 1.04968174696576 38.9920870468834  17.7079207920792 50  17.7079207920792 50  L 126.123762376238 50  C 126.123762376238 50  144.591545596446 38.9905619116623  144.554455445545 25  C 144.517629966224 11.1092733287065  126.123762376238 0.211864406779666  126.123762376238 0.211864406779666  Z " fill-rule="nonzero" fill="#ffffff" stroke="none" transform="matrix(1 0 0 1 640 920 )" />
    <path d="M 126.123762376238 0.211864406779666  L 17.7079207920792 0.211864406779666  C 17.7079207920792 0.211864406779666  1.11838159618911 11.1107892943971  1.08415841584159 25  C 1.04968174696576 38.9920870468834  17.7079207920792 50  17.7079207920792 50  L 126.123762376238 50  C 126.123762376238 50  144.591545596446 38.9905619116623  144.554455445545 25  C 144.517629966224 11.1092733287065  126.123762376238 0.211864406779666  126.123762376238 0.211864406779666  Z " stroke-width="2" stroke="#797979" fill="none" transform="matrix(1 0 0 1 640 920 )" mask="url(#clip78)" />
  </g>
</svg>