<?xml version="1.0" encoding="utf-8"?>
<svg version="1.1" xmlns:xlink="http://www.w3.org/1999/xlink" width="110px" height="50px" xmlns="http://www.w3.org/2000/svg">
  <defs>
    <mask fill="white" id="clip239">
      <path d="M 95.0247524752475 0.211864406779666  L 13.3415841584158 0.211864406779666  C 13.3415841584158 0.211864406779666  0.842616271101386 11.1107892943971  0.816831683168319 25  C 0.790856110727624 38.9920870468834  13.3415841584158 50  13.3415841584158 50  L 95.0247524752475 50  C 95.0247524752475 50  108.93883572335 38.9905619116623  108.910891089109 25  C 108.883145864963 11.1092733287065  95.0247524752475 0.211864406779666  95.0247524752475 0.211864406779666  Z " fill-rule="evenodd" />
    </mask>
  </defs>
  <g transform="matrix(1 0 0 1 -812 -1490 )">
    <path d="M 95.0247524752475 0.211864406779666  L 13.3415841584158 0.211864406779666  C 13.3415841584158 0.211864406779666  0.842616271101386 11.1107892943971  0.816831683168319 25  C 0.790856110727624 38.9920870468834  13.3415841584158 50  13.3415841584158 50  L 95.0247524752475 50  C 95.0247524752475 50  108.93883572335 38.9905619116623  108.910891089109 25  C 108.883145864963 11.1092733287065  95.0247524752475 0.211864406779666  95.0247524752475 0.211864406779666  Z " fill-rule="nonzero" fill="#ffffff" stroke="none" transform="matrix(1 0 0 1 812 1490 )" />
    <path d="M 95.0247524752475 0.211864406779666  L 13.3415841584158 0.211864406779666  C 13.3415841584158 0.211864406779666  0.842616271101386 11.1107892943971  0.816831683168319 25  C 0.790856110727624 38.9920870468834  13.3415841584158 50  13.3415841584158 50  L 95.0247524752475 50  C 95.0247524752475 50  108.93883572335 38.9905619116623  108.910891089109 25  C 108.883145864963 11.1092733287065  95.0247524752475 0.211864406779666  95.0247524752475 0.211864406779666  Z " stroke-width="2" stroke="#797979" fill="none" transform="matrix(1 0 0 1 812 1490 )" mask="url(#clip239)" />
  </g>
</svg>