<?xml version="1.0" encoding="utf-8"?>
<svg version="1.1" xmlns:xlink="http://www.w3.org/1999/xlink" width="51px" height="81px" xmlns="http://www.w3.org/2000/svg">
  <g transform="matrix(1 0 0 1 -83 -975 )">
    <path d="M 108 975.5  C 113.32 975.5  117.5 979.68  117.5 985  C 117.5 990.32  113.32 994.5  108 994.5  C 102.68 994.5  98.5 990.32  98.5 985  C 98.5 979.68  102.68 975.5  108 975.5  Z " fill-rule="nonzero" fill="#ffffff" stroke="none" />
    <path d="M 108 975.5  C 113.32 975.5  117.5 979.68  117.5 985  C 117.5 990.32  113.32 994.5  108 994.5  C 102.68 994.5  98.5 990.32  98.5 985  C 98.5 979.68  102.68 975.5  108 975.5  Z " stroke-width="1" stroke="#797979" fill="none" />
    <path d="M 83 1005  L 133 1005  M 108 995  L 108 1030  M 88 1055  L 108 1030  M 108 1030  L 128 1055  " stroke-width="1" stroke="#797979" fill="none" />
  </g>
</svg>