<?xml version="1.0" encoding="utf-8"?>
<svg version="1.1" xmlns:xlink="http://www.w3.org/1999/xlink" width="14px" height="14px" xmlns="http://www.w3.org/2000/svg">
  <g transform="matrix(1 0 0 1 -499 -223 )">
    <path d="M 506 223  C 509.92 223  513 226.08  513 230  C 513 233.92  509.92 237  506 237  C 502.08 237  499 233.92  499 230  C 499 226.08  502.08 223  506 223  Z " fill-rule="nonzero" fill="#ffffff" stroke="none" fill-opacity="0" />
    <path d="M 506 223.5  C 509.64 223.5  512.5 226.36  512.5 230  C 512.5 233.64  509.64 236.5  506 236.5  C 502.36 236.5  499.5 233.64  499.5 230  C 499.5 226.36  502.36 223.5  506 223.5  Z " stroke-width="1" stroke="#1890ff" fill="none" />
  </g>
</svg>