<?xml version="1.0" encoding="utf-8"?>
<svg version="1.1" xmlns:xlink="http://www.w3.org/1999/xlink" width="14px" height="14px" xmlns="http://www.w3.org/2000/svg">
  <g transform="matrix(1 0 0 1 -499 -279 )">
    <path d="M 506 279  C 509.92 279  513 282.08  513 286  C 513 289.92  509.92 293  506 293  C 502.08 293  499 289.92  499 286  C 499 282.08  502.08 279  506 279  Z " fill-rule="nonzero" fill="#ffffff" stroke="none" fill-opacity="0" />
    <path d="M 506 279.5  C 509.64 279.5  512.5 282.36  512.5 286  C 512.5 289.64  509.64 292.5  506 292.5  C 502.36 292.5  499.5 289.64  499.5 286  C 499.5 282.36  502.36 279.5  506 279.5  Z " stroke-width="1" stroke="#d9d9d9" fill="none" />
  </g>
</svg>