<?xml version="1.0" encoding="utf-8"?>
<svg version="1.1" xmlns:xlink="http://www.w3.org/1999/xlink" width="14px" height="14px" xmlns="http://www.w3.org/2000/svg">
  <g transform="matrix(1 0 0 1 -550 -250 )">
    <path d="M 557 250  C 560.92 250  564 253.08  564 257  C 564 260.92  560.92 264  557 264  C 553.08 264  550 260.92  550 257  C 550 253.08  553.08 250  557 250  Z " fill-rule="nonzero" fill="#ffffff" stroke="none" fill-opacity="0" />
    <path d="M 557 250.5  C 560.64 250.5  563.5 253.36  563.5 257  C 563.5 260.64  560.64 263.5  557 263.5  C 553.36 263.5  550.5 260.64  550.5 257  C 550.5 253.36  553.36 250.5  557 250.5  Z " stroke-width="1" stroke="#1890ff" fill="none" />
  </g>
</svg>